<svg id="JBTlogo" xmlns="http://www.w3.org/2000/svg" viewBox="0 0 339.31 94.7"><defs><style>.cls-1,.cls-4{fill:none;stroke-miterlimit:10;}.cls-1{stroke:#1d1d1b;stroke-width:16px;}.cls-2{fill:#1d1d1b;}.cls-3{fill:#e30613;}.cls-4{stroke:#e30613;stroke-width:5px;}</style></defs><title>Obszar roboczy 1</title><path class="cls-1" d="M16.5,8H78.2a8.49,8.49,0,0,1,8.5,8.5V78.2a8.49,8.49,0,0,1-8.5,8.5H16.5A8.49,8.49,0,0,1,8,78.2V16.5A8.49,8.49,0,0,1,16.5,8Z"/><path class="cls-2" d="M25.4,34.7H37.8V62.5c0,5.8-1.4,10.4-4.1,13.9-3.5,4.4-8.3,6.5-14.5,6.5a22,22,0,0,1-6.3-1.2V70.1a13.42,13.42,0,0,0,5.2,1.4c4.9,0,7.3-3.6,7.3-10.8ZM31.2,20a6.06,6.06,0,0,1,4.5,10.1h0l-.1.1a6.56,6.56,0,0,1-4.4,1.7,5.72,5.72,0,0,1-4.4-1.7,5.85,5.85,0,0,1,0-8.3h0l.1-.1A6.22,6.22,0,0,1,31.2,20Z"/><path class="cls-2" d="M66.2,13.3V25.9h5.6v13H66.2q0,3.9,1.2,5.4t4.5,1.5v13H70.5a16.55,16.55,0,0,1-7.9-2,15.31,15.31,0,0,1-6-5.3c-1.9-2.8-2.8-6.5-2.8-11.2V13.4Z"/><rect class="cls-2" x="70.7" y="45.9" width="11.1" height="13"/><path class="cls-3" d="M65.8,57.3l-.3,3.9-.5,1-.9,2.7-2,2-.3,1.5.3,2.6-2.4,2.2-2.5.5-2.6.7-1.5,1.1-1.5,1.4-1.2.5-1.3.3-1-.3-.1-.7.4-.7,1.1-.9,1-1.3L52,72.7l1-1.4,1.3-1.1,1.4-1.7L57.2,67l1.3-1.7,1-1.6,1.1-2,.4-1.4V58.4l-.1-1.5L60,55.4l-1.4-1.2-1.1-.5-1.9-.5L54,52.9l-1.4-.3-1.4.2-2,.1-1.7.3-.9,1.5-1,1.1-.3,1.5L45,59.7l-.3,1.9-.1,1.9-.4,2.2-.1,1.6L44,69.5l-.2,1.6-.2,2-.1,1.6v3.5l-.2,1.5.2,1.3v1.6l-.2,1.1-.7.7-.6-.2-.3-.3-.3-1.2-.2-1.6V76.6l-.1-2,.3-2.3V67.7l-.2-2.3.4-5.7-.7-1.3-1.5-.5-.8-.6-1.1-1L37,55.2l.1-1.5.6-1.4,1-1,.5-1.5L41,47.4l.1-1.9L41,42.8l-.2-2.7-.1-2v-2l-.4-2.4-.1-2-.4-2.3-.1-2.3L39.5,25V24l.2-1.8V20.7l-.4-1.6-.1-1.5-.6-1.4V14.9l.6-1,1-1,1.5-.6,1.5-.1,1.8.5,1.5.7,1.7.5,1.3.8.2,1.6-.1,2,.6,1.5.4,2,.1,1.6-.5,2.7-1,1.8-.9,1.2-.7,1.5v2.2l-1.3,3.4-.1,2.6L46,41.3l-.3,2.1v1.8l.5,1.1,1.2.3,3.1.2,2.2.3,1.5.1,1.8.6,1.8.4,1.7.5,1.7,1L63,51.3l1.3,1.4,1.1,2ZM45.6,77.2l-.5.9h-.5v-.9l.5-.5Z"/><path class="cls-2" d="M131,69.2a2.9,2.9,0,0,0,4,0,2.57,2.57,0,0,0,.7-1.8v-12H137V67.3a4.11,4.11,0,0,1-1.1,2.8,4,4,0,0,1-5.7,0h0Z"/><path class="cls-2" d="M145.9,61.2a6.06,6.06,0,0,1,2,1.9,5.38,5.38,0,0,1-4.6,8.2h-3.5V61.8h-1.9l.8-1.3h1.2V55.4h4.2a3.12,3.12,0,0,1,3.1,3.1h0A2.89,2.89,0,0,1,145.9,61.2Zm-4.8-.7H144a2,2,0,0,0,1.4-.6,1.9,1.9,0,0,0,.5-1.3,2,2,0,0,0-.6-1.4,2.11,2.11,0,0,0-1.3-.5h-2.9Zm0,1.2V70h2.1a3.85,3.85,0,0,0,2.9-1.2,4,4,0,0,0,1.2-2.9,3.94,3.94,0,0,0-.6-2.1,5.36,5.36,0,0,0-1.5-1.5,4.55,4.55,0,0,0-2-.5Z"/><path class="cls-2" d="M153.8,56.7V71.3h-1.3V56.7h-3.1V55.4H157v1.3Z"/><path class="cls-2" d="M158,70h1.3v1.3H158Z"/><path class="cls-2" d="M162.1,63h-1.7V61.7h1.7V59l1.3-.6v3.3H165V63h-1.7v8.3H162Z"/><path class="cls-2" d="M171.1,61.7l-.6,1.1a1.48,1.48,0,0,0-.7-.1,2.41,2.41,0,0,0-1.8.7,2.34,2.34,0,0,0-.7,1.7v6.1H166V61.7l1.1.9a3.86,3.86,0,0,1,2.7-1.1A5.07,5.07,0,0,1,171.1,61.7Z"/><path class="cls-2" d="M180.4,70a5,5,0,0,1-7.1.3,5.23,5.23,0,0,1-1.6-3.7,5.08,5.08,0,0,1,1.5-3.6,5,5,0,0,1,7.1,0l.1.1,1.4-1.3v9.5Zm-3.6-7.2a3.75,3.75,0,1,0,3.8,3.7,3.63,3.63,0,0,0-1.1-2.6,3.86,3.86,0,0,0-2.7-1.1Z"/><path class="cls-2" d="M183.2,71.3V61.8l1.1.9a4,4,0,0,1,2.7-1.2,3.71,3.71,0,0,1,3.8,3.7h0v6.1h-1.3v-6a2.4,2.4,0,0,0-2.5-2.5,2.48,2.48,0,0,0-2.5,2.5h0v6Z"/><path class="cls-2" d="M193,69.3a1.49,1.49,0,0,0,1.5.9,1.67,1.67,0,0,0,1.7-1.6h0v-.1a1.69,1.69,0,0,0-.3-1,1.46,1.46,0,0,0-.9-.6l-1.1-.3a4.19,4.19,0,0,1-1.4-.9,2.69,2.69,0,0,1-.5-1.5,2.48,2.48,0,0,1,2.5-2.5h0a2.3,2.3,0,0,1,1.4.4,3.13,3.13,0,0,1,.9,1.1l-1.2.5a1.17,1.17,0,0,0-1.1-.8,1.09,1.09,0,0,0-.9.4,1.27,1.27,0,0,0-.4.9,1.11,1.11,0,0,0,.9,1.2l1.1.3a2.75,2.75,0,0,1,1.6,1,3,3,0,0,1-.6,4.2,2.79,2.79,0,0,1-1.8.6,2.6,2.6,0,0,1-1.5-.4,2.54,2.54,0,0,1-1.1-1.2Z"/><path class="cls-2" d="M198.6,71.3V55.4h1.3V71.3Z"/><path class="cls-2" d="M209.6,70a5,5,0,0,1-7.1.3,5.23,5.23,0,0,1-1.6-3.7,5.08,5.08,0,0,1,1.5-3.6,5,5,0,0,1,7.1,0l.1.1,1.4-1.3v9.5Zm-3.7-7.2a3.75,3.75,0,1,0,3.8,3.7,3.63,3.63,0,0,0-1.1-2.6,3.86,3.86,0,0,0-2.7-1.1Z"/><path class="cls-2" d="M213.7,63H212V61.7h1.7V59l1.3-.6v3.3h1.7V63H215v8.3h-1.3Z"/><path class="cls-2" d="M225.8,68.3l1.1.6a5,5,0,0,1-6.9,2,5.41,5.41,0,0,1-2.7-4.4A5.05,5.05,0,0,1,226,63a5.55,5.55,0,0,1,.6.8l-6.5,5.7a3.78,3.78,0,0,0,4.2.2A4,4,0,0,0,225.8,68.3Zm-6.5.3,5.6-4.9a3.76,3.76,0,0,0-5.6,4.9Z"/><path class="cls-2" d="M233.8,61.6l5.9-6.4V71.3h-1.3V58.4l-4.6,5-4.6-5V71.3h-1.3V55.1Z"/><path class="cls-2" d="M249,68.3l1.1.6a4.91,4.91,0,0,1-6.7,2.2,5,5,0,0,1-2.7-4.6,5.05,5.05,0,0,1,8.7-3.5,5.55,5.55,0,0,1,.6.8l-6.5,5.7a3.78,3.78,0,0,0,4.2.2A3.53,3.53,0,0,0,249,68.3Zm-6.4.3,5.6-4.9a3.76,3.76,0,0,0-5.6,4.9Z"/><path class="cls-2" d="M251.2,70h1.3v1.3h-1.3Z"/><path class="cls-2" d="M262.4,63.3l-1,.8a3.76,3.76,0,0,0-5.8,4.8,3.33,3.33,0,0,0,2.9,1.3,3.41,3.41,0,0,0,2.8-1.3l1,.8a4.93,4.93,0,1,1-3.4-8.2,5.84,5.84,0,0,1,1.8.4A4.74,4.74,0,0,1,262.4,63.3Z"/><path class="cls-2" d="M268.2,61.5a5,5,0,1,1-5,5,4.69,4.69,0,0,1,1.5-3.5A4.54,4.54,0,0,1,268.2,61.5Zm0,1.3a3.75,3.75,0,1,0,3.8,3.7,3.63,3.63,0,0,0-1.1-2.6A4,4,0,0,0,268.2,62.8Z"/><path class="cls-2" d="M287.8,71.3h-1.3V65.2a2.41,2.41,0,0,0-.7-1.8,2.48,2.48,0,0,0-3.4,0,2.09,2.09,0,0,0-.7,1.8v6.1h-1.3V65.2a2.41,2.41,0,0,0-.7-1.8,2.48,2.48,0,0,0-3.4,0,2.09,2.09,0,0,0-.7,1.8v6.1h-1.3V61.8l1.1.8a3.86,3.86,0,0,1,2.7-1.1,3.92,3.92,0,0,1,1.8.4,3.74,3.74,0,0,1,1.3,1.2,3.72,3.72,0,0,1,5.1-1,3.44,3.44,0,0,1,1.3,1.6,4,4,0,0,1,.3,1.5Z"/><path class="cls-2" d="M289.2,70h1.3v1.3h-1.3Z"/><path class="cls-2" d="M296.9,71.6a5.17,5.17,0,0,1-3.8-1.7v7.7h-1.3V61.8l1.4,1.3a5,5,0,0,1,7.2,7A5.09,5.09,0,0,1,296.9,71.6Zm0-1.3a3.75,3.75,0,1,0-3.8-3.7,3.63,3.63,0,0,0,1.1,2.6A3.86,3.86,0,0,0,296.9,70.3Z"/><path class="cls-2" d="M303,71.3V55.4h1.3V71.3Z"/><path class="cls-2" d="M119.4,34.7l9.2.2c-.6,4.8-2.3,8.4-4.9,11a14.07,14.07,0,0,1-10.5,3.9,15.09,15.09,0,0,1-11-4.4,14.7,14.7,0,0,1-4.4-11,15.37,15.37,0,0,1,15.7-15.6,14.86,14.86,0,0,1,10.9,4.4,17.24,17.24,0,0,1,4.3,8.5l-9.4.6q-1.65-4.8-6-4.8a6,6,0,0,0-4.6,1.9,6.75,6.75,0,0,0-1.8,5,6.55,6.55,0,0,0,1.8,4.8,6.63,6.63,0,0,0,9,.2A7.48,7.48,0,0,0,119.4,34.7Z"/><path class="cls-2" d="M146.7,18.9a14.66,14.66,0,0,1,10.8,4.6A15,15,0,0,1,162,34.4a15.5,15.5,0,1,1-31,0,14.88,14.88,0,0,1,4.6-11A15.41,15.41,0,0,1,146.7,18.9Zm-.2,8.7a6.29,6.29,0,0,0-4.6,2,7.08,7.08,0,0,0,0,9.6,6.31,6.31,0,0,0,8.9.3h0l.3-.3a7.08,7.08,0,0,0,0-9.6,6.29,6.29,0,0,0-4.6-2Z"/><path class="cls-2" d="M165.5,49.2V30a10.4,10.4,0,0,1,9.6-11.1h1.4c3.3,0,5.9,1,7.6,2.9s2.6,4.8,2.6,8.4V49H178V30.3c0-1.8-.6-2.7-1.9-2.7s-1.9.9-1.9,2.7V49.1h-8.7Z"/><path class="cls-2" d="M206,19.5v8.4a4,4,0,0,0-1.5-.3,2.61,2.61,0,0,0-1.7.7,2.41,2.41,0,0,0-.7,1.8,4.89,4.89,0,0,0,.8,2.3l.7,1.2a11.76,11.76,0,0,1,1.8,6.1A10.42,10.42,0,0,1,194.8,50a10,10,0,0,1-4.2-1V40.4a4.53,4.53,0,0,0,2.2.8,2.64,2.64,0,0,0,1.9-.7,2.14,2.14,0,0,0,.8-1.7,7,7,0,0,0-1.2-2.8,13.16,13.16,0,0,1-2-6.9,10.22,10.22,0,0,1,3-7.2,9.82,9.82,0,0,1,7.1-3A10.46,10.46,0,0,1,206,19.5Z"/><path class="cls-2" d="M231.2,19.7V38.8a11.06,11.06,0,0,1-3,8.1,10.69,10.69,0,0,1-8,3c-3.3,0-5.9-1-7.6-2.9s-2.6-4.8-2.6-8.5V19.7h8.8V38.5c0,1.8.6,2.7,1.9,2.7s1.9-.9,1.9-2.7V19.7Z"/><path class="cls-2" d="M235.9,19.7h8.8V37.2a3.7,3.7,0,0,0,.7,2.7,4,4,0,0,0,2.6.7h.4v8.6h-2.3a9.57,9.57,0,0,1-7.5-2.8,10.88,10.88,0,0,1-2.7-7.8Z"/><path class="cls-2" d="M264.2,28.1v21h-8.8v-21h-6.7V19.6h22.2v8.5Z"/><path class="cls-2" d="M282.9,19.7V49.2h-8.8V19.7Z"/><path class="cls-2" d="M288.2,49.2V30a10.4,10.4,0,0,1,9.6-11.1h1.4c3.3,0,5.9,1,7.6,2.9s2.6,4.8,2.6,8.4V49h-8.8V30.3c0-1.8-.6-2.7-1.9-2.7s-1.9.9-1.8,2.7V49.1h-8.7Z"/><path class="cls-2" d="M327.4,32.6h8.4a11,11,0,0,1,2.7,7.1,9.7,9.7,0,0,1-3.2,7.3,10.69,10.69,0,0,1-7.8,2.9,13.38,13.38,0,0,1-10.2-4.6,15.72,15.72,0,0,1-4.2-11.1,14.77,14.77,0,0,1,4.3-10.9A14.2,14.2,0,0,1,328,18.9a12.8,12.8,0,0,1,4.8.9v8.8a10.21,10.21,0,0,0-3.8-1,6.55,6.55,0,0,0-5,1.9,6.63,6.63,0,0,0-2,5,7,7,0,0,0,1.8,5,6.47,6.47,0,0,0,4.9,1.9c1.3,0,2-.4,2-1.2,0-.6-.4-.9-1.3-.9h-2.1Z"/><circle class="cls-3" cx="75.9" cy="76.5" r="5.2"/><line class="cls-4" x1="96.5" y1="81.4" x2="339.3" y2="80.8"/></svg>